<svg width="25" height="25" viewBox="0 0 25 25" fill="none" xmlns="http://www.w3.org/2000/svg">
<path d="M4.16683 20.0645V21.875H20.8335V20.075L17.5981 20.8593L12.5356 19.8135L7.3512 20.8593L4.16683 20.0645ZM4.16683 17.9166L7.40016 18.7239L12.5418 17.6864L17.5616 18.7239L20.8335 17.9312V16.6666C20.8335 16.3904 20.7238 16.1254 20.5284 15.9301C20.3331 15.7347 20.0681 15.625 19.7918 15.625H5.2085C4.93223 15.625 4.66728 15.7347 4.47193 15.9301C4.27658 16.1254 4.16683 16.3904 4.16683 16.6666V17.9166ZM15.6252 13.5416H19.7918C20.6206 13.5416 21.4155 13.8709 22.0015 14.4569C22.5876 15.043 22.9168 15.8378 22.9168 16.6666V23.9583H2.0835V16.6666C2.0835 15.8378 2.41274 15.043 2.99879 14.4569C3.58484 13.8709 4.37969 13.5416 5.2085 13.5416H9.37516V10.4166H15.6252V13.5416ZM13.5418 13.5416V12.5H11.4585V13.5416H13.5418ZM12.5002 9.79163C11.6714 9.79163 10.8765 9.46239 10.2905 8.87633C9.7044 8.29028 9.37516 7.49543 9.37516 6.66663C9.37516 5.51558 10.4168 3.64058 12.5002 1.04163C14.5835 3.64058 15.6252 5.51558 15.6252 6.66663C15.6252 7.49543 15.2959 8.29028 14.7099 8.87633C14.1238 9.46239 13.329 9.79163 12.5002 9.79163ZM12.4981 7.72808C13.0731 7.72808 13.5397 7.22808 13.5397 6.61142C13.5397 6.201 13.1918 5.53121 12.4981 4.60308C11.8033 5.53121 11.4564 6.201 11.4564 6.61142C11.4564 7.22808 11.9231 7.72808 12.4981 7.72808Z" fill="#888888"/>
</svg>
