<svg width="28" height="28" viewBox="0 0 28 28" fill="none" xmlns="http://www.w3.org/2000/svg">
<path d="M9.75 2.01001C8.88556 2.01002 8.04766 2.3086 7.37801 2.85526C6.70836 3.40191 6.24807 4.16307 6.075 5.01001H18.25C19.5098 5.01001 20.718 5.51045 21.6088 6.40125C22.4996 7.29205 23 8.50023 23 9.76001V18.425C24.712 18.077 26 16.565 26 14.75V7.76001C26 6.23501 25.3942 4.77248 24.3159 3.69415C23.2375 2.61581 21.775 2.01001 20.25 2.01001H9.75ZM22 9.76001C22 8.76545 21.6049 7.81162 20.9017 7.10836C20.1984 6.4051 19.2446 6.01001 18.25 6.01001H5.75C4.75544 6.01001 3.80161 6.4051 3.09835 7.10836C2.39509 7.81162 2 8.76545 2 9.76001V18.75C2 19.7446 2.39509 20.6984 3.09835 21.4017C3.80161 22.1049 4.75544 22.5 5.75 22.5H6V24.74C6 25.775 7.185 26.362 8.008 25.735L12.253 22.5H18.25C19.2446 22.5 20.1984 22.1049 20.9017 21.4017C21.6049 20.6984 22 19.7446 22 18.75V9.76001Z" fill="#BBBBBB"/>
</svg>
