<svg width="36" height="32" viewBox="0 0 36 32" fill="none" xmlns="http://www.w3.org/2000/svg">
<path d="M24.2929 25.2603C26.0951 26.4436 27.1061 28.3986 26.9303 30.405C26.8424 31.6397 26.8863 31.6397 25.5237 31.8455C24.6885 31.9484 19.3698 31.9999 13.9632 31.9999C7.8094 31.9999 1.39181 31.9484 0.908297 31.7941C-0.8939 31.2281 0.161045 27.3182 2.53467 25.4661C4.42478 24.077 8.24896 21.9163 9.3039 21.659C10.7545 21.2989 10.9303 20.2185 9.3039 16.9773C8.95225 16.2056 8.55665 13.9934 8.51269 11.6269C8.46874 7.81979 9.04016 5.24744 11.8973 3.96127C12.4248 3.75548 13.0402 3.65259 13.6116 3.65259C15.5017 3.65259 17.2599 4.88731 18.0072 6.68796C19.0182 9.10596 18.5347 15.4339 17.4797 17.7491C16.205 20.3728 16.3369 21.196 17.7435 21.6076C18.6226 21.8648 21.5237 23.4597 24.2929 25.2603ZM33.9193 22.0191C35.3259 22.8937 36.1171 24.4886 35.9852 26.032C35.9413 26.9581 35.9413 27.0095 34.8863 27.1638C34.3588 27.2667 31.5896 27.3182 28.3369 27.3182C27.7654 25.7233 26.6665 24.2828 25.172 23.3568C23.4577 22.2249 21.4358 21.0417 19.8973 20.27C20.9083 19.704 21.7874 19.241 22.183 19.1381C23.2819 18.8294 23.4138 18.1092 22.183 15.5368C21.8753 14.9195 21.5237 13.1703 21.4797 11.3182C21.4358 8.33426 22.0072 6.27638 24.205 5.29889C24.6446 5.14455 25.1281 5.04166 25.5676 5.04166C27.0182 5.04166 28.3808 5.9677 28.9523 7.40821C29.6995 9.31175 29.3479 14.2507 28.5566 16.1027C27.5896 18.1606 27.6775 18.778 28.7764 19.0867C29.4797 19.2925 31.7215 20.5786 33.9193 22.0191Z" fill="#849E7B"/>
</svg>
