<svg width="29" height="29" viewBox="0 0 29 29" fill="none" xmlns="http://www.w3.org/2000/svg">
<path d="M27.0265 5.22004C27.0265 4.87609 26.8898 4.54622 26.6466 4.30301C26.4034 4.05979 26.0735 3.92316 25.7296 3.92316C25.6635 3.92316 25.5999 3.93302 25.5361 3.94259V3.91504H3.2627V3.92316C2.91875 3.92316 2.58888 4.05979 2.34567 4.30301C2.10246 4.54622 1.96582 4.87609 1.96582 5.22004V23.925H1.98032C2.0534 24.572 2.59599 25.0769 3.26241 25.0769V25.085H25.5359V25.0575C25.5994 25.0671 25.6629 25.0769 25.7293 25.0769C26.396 25.0769 26.9386 24.5723 27.0117 23.925H27.0343V5.22004H27.0265ZM24.147 22.1975H20.9974C20.9868 22.1529 20.9706 22.1099 20.9492 22.0693L20.9544 22.0664L14.3659 10.6549L14.3633 10.6564C14.2906 10.5054 14.1769 10.378 14.0351 10.2888C13.8934 10.1995 13.7293 10.152 13.5618 10.1518C13.3896 10.152 13.2212 10.202 13.0768 10.2956C12.9324 10.3893 12.8181 10.5228 12.7477 10.6799L8.36322 18.2738L7.28964 16.4146L7.28819 16.4155C7.24991 16.3359 7.18997 16.2687 7.11523 16.2216C7.04049 16.1745 6.95399 16.1494 6.86566 16.1493C6.67455 16.1493 6.5107 16.2638 6.43675 16.4271L4.85335 19.1696V6.81069H24.147V22.1975Z" fill="#AAAAAA"/>
<path d="M19.7557 14.1185C21.3733 14.1185 22.6847 12.8071 22.6847 11.1895C22.6847 9.57186 21.3733 8.2605 19.7557 8.2605C18.138 8.2605 16.8267 9.57186 16.8267 11.1895C16.8267 12.8071 18.138 14.1185 19.7557 14.1185Z" fill="#AAAAAA"/>
</svg>
