<svg width="673" height="516" viewBox="0 0 673 516" fill="none" xmlns="http://www.w3.org/2000/svg">
<g clip-path="url(#clip0_84_230)">
<path d="M145.841 494.934C145.308 494.958 144.78 494.818 144.329 494.533C143.878 494.248 143.525 493.831 143.32 493.338C143.114 492.846 143.064 492.303 143.178 491.781C143.291 491.26 143.562 490.786 143.954 490.424L144.133 489.715C144.109 489.658 144.086 489.602 144.062 489.545C141.665 483.833 126.368 499.756 125.707 505.125C125.415 507.497 125.538 509.903 126.07 512.234C121.115 501.433 118.542 489.694 118.525 477.812C118.524 474.831 118.69 471.852 119.022 468.889C119.296 466.46 119.677 464.048 120.163 461.653C122.819 448.661 128.521 436.484 136.801 426.121C141.536 426.385 145.686 425.664 146.087 416.494C146.158 414.862 147.369 413.45 147.635 411.843C147.183 411.902 146.724 411.939 146.272 411.969C146.131 411.976 145.983 411.984 145.842 411.991L145.789 411.993C145.292 412.016 144.799 411.894 144.37 411.643C143.941 411.392 143.593 411.022 143.37 410.578C143.146 410.135 143.055 409.636 143.108 409.142C143.162 408.647 143.357 408.179 143.67 407.793C143.865 407.553 144.061 407.313 144.256 407.074C144.553 406.703 144.856 406.34 145.153 405.97C145.187 405.935 145.219 405.898 145.249 405.859C145.59 405.437 145.931 405.022 146.272 404.6C145.65 403.635 144.813 402.826 143.826 402.238C140.41 400.238 135.697 401.623 133.229 404.711C130.753 407.799 130.287 412.132 131.146 415.99C131.992 419.273 133.39 422.388 135.282 425.203C135.096 425.44 134.904 425.669 134.718 425.906C131.331 430.258 128.38 434.931 125.905 439.859C126.605 434.394 118.044 414.658 114.733 410.478C110.756 405.456 102.601 407.648 101.901 414.013C101.894 414.075 101.887 414.136 101.881 414.198C102.372 414.475 102.854 414.769 103.325 415.081C103.916 415.476 104.375 416.04 104.64 416.7C104.905 417.36 104.965 418.084 104.811 418.779C104.657 419.473 104.297 420.105 103.778 420.591C103.258 421.077 102.604 421.395 101.901 421.503L101.829 421.515C95.2461 430.907 116.349 455.352 121.631 449.863C119.145 456.904 117.585 464.238 116.991 471.68C116.655 476.071 116.675 480.482 117.051 484.87L117.029 484.714C115.855 475.158 95.7206 460.949 89.8411 462.133C86.4541 462.815 83.118 462.66 83.6323 466.074C83.6405 466.128 83.6489 466.183 83.6573 466.237C84.5699 466.609 85.4585 467.037 86.3178 467.518C86.8096 467.796 87.291 468.09 87.762 468.401C88.3537 468.796 88.8122 469.361 89.0774 470.021C89.3426 470.681 89.4021 471.405 89.2482 472.099C89.0942 472.794 88.734 473.425 88.2147 473.911C87.6954 474.398 87.0413 474.716 86.338 474.824L86.2659 474.835C86.214 474.843 86.1695 474.85 86.1177 474.858C83.1213 485.16 105.342 501.787 118.852 496.497H118.859C120.198 502.31 122.137 507.969 124.647 513.382H145.323C145.397 513.152 145.464 512.915 145.531 512.686C143.617 512.806 141.696 512.691 139.81 512.345C141.344 510.464 142.878 508.568 144.412 506.687C144.446 506.652 144.478 506.615 144.508 506.576C145.286 505.613 146.072 504.658 146.85 503.695L146.85 503.694C146.892 500.743 146.553 497.799 145.842 494.934L145.841 494.934ZM122.164 448.39L122.175 448.375L122.164 448.405V448.39ZM117.584 489.647L117.406 489.247C117.414 488.958 117.414 488.669 117.406 488.373C117.406 488.291 117.392 488.21 117.392 488.129C117.458 488.639 117.518 489.15 117.592 489.661L117.584 489.647Z" fill="#6C63FF"/>
<path d="M542.14 513.276L542.034 512.552C540.152 499.769 541.07 486.73 544.724 474.336C548.378 461.942 554.681 450.488 563.198 440.766C568.028 435.355 573.521 430.573 579.546 426.532L580.088 426.169L580.406 427.1C580.766 428.126 581.468 428.997 582.395 429.566C583.322 430.136 584.417 430.37 585.495 430.228C586.574 430.087 587.571 429.578 588.319 428.789C589.067 427.999 589.521 426.977 589.603 425.892L590.022 420.425L590.67 420.107C593.684 418.604 597.081 418.039 600.421 418.486C603.76 418.932 606.889 420.369 609.402 422.611C612.007 424.836 613.884 427.791 614.79 431.094C615.697 434.397 615.592 437.895 614.488 441.137C613.502 444.125 612.563 447.226 611.655 450.226C608.549 460.483 605.338 471.088 599.492 479.917C595.029 486.581 589.118 492.151 582.2 496.214C575.282 500.277 567.536 502.727 559.538 503.381L542.14 513.276Z" fill="#F2F2F2"/>
<path d="M345.34 303.14C345.515 304.191 345.919 305.191 346.522 306.069C347.126 306.947 347.915 307.682 348.833 308.222C349.752 308.763 350.778 309.095 351.839 309.196C352.9 309.298 353.971 309.165 354.975 308.808L371.516 328.207L375.652 315.402L359.293 298.984C358.582 297.338 357.29 296.01 355.664 295.251C354.038 294.493 352.189 294.357 350.469 294.869C348.749 295.382 347.277 296.506 346.332 298.031C345.387 299.555 345.034 301.373 345.34 303.14Z" fill="#9E616A"/>
<path d="M412.036 298.303C412.036 298.303 420.409 284.406 428.271 288.368C436.134 292.33 430.083 306.075 430.083 306.075L393.286 348.748C393.286 348.748 352.286 314.537 357.736 315.018C363.185 315.499 366.051 305.846 366.051 305.846L388.141 320.585L389.467 316.495L390.585 317.934L394.211 315.754L412.036 298.303Z" fill="#6C63FF"/>
<path d="M467.767 38.6703C467.782 48.4124 464.101 57.7981 457.465 64.9353C456.962 65.4832 456.432 66.0132 455.892 66.5252C435.898 51.1464 414.928 37.0773 393.114 24.406C393.383 23.7233 393.671 23.0496 393.986 22.3849C397.698 14.3994 404.026 7.91915 411.924 4.01591C419.822 0.112667 428.817 -0.979751 437.421 0.919327C446.024 2.8184 453.722 7.59521 459.24 14.4597C464.758 21.3243 467.766 29.8653 467.767 38.6702V38.6703Z" fill="#FF6584"/>
<path d="M499.147 117.358L499.111 117.762C473.663 116.01 448.219 114.256 422.777 112.498C404.395 111.232 385.374 109.794 369.131 101.099C362.965 97.8026 356.96 93.4011 349.967 93.0957C341.293 92.7095 333.724 98.7727 327.773 105.096C292.6 142.536 282.415 199.782 242.954 232.667C267.842 171.335 297.557 112.071 331.819 55.4319C338.147 44.9672 345.652 33.7929 357.401 30.3795C368.61 27.1189 380.08 31.8796 390.399 37.9878C392.611 39.2992 394.768 40.6735 396.853 42.0389C412.755 52.4407 428.395 63.2407 443.775 74.4389C462.661 88.1733 481.118 102.48 499.147 117.358Z" fill="#F2F2F2"/>
<path d="M581.45 196.763C554.25 158.397 522.648 123.345 487.291 92.3231C477.124 83.3944 466.658 74.7951 455.893 66.5251C435.898 51.1464 414.928 37.0772 393.114 24.4059C385.959 20.256 378.72 16.2707 371.397 12.4501C365.707 9.4949 359.649 6.79113 353.087 7.21331C348.496 7.60542 344.11 9.29046 340.439 12.0729C332.376 17.9565 327.037 27.1456 322.641 35.9036C318.794 43.5837 315.207 51.4165 311.549 59.2044C309.994 62.5189 308.439 65.8245 306.83 69.1121C301.221 80.6278 295.48 92.0805 289.607 103.47C282.038 118.148 274.251 132.715 266.245 147.171C249.427 177.559 231.679 207.399 213.004 236.691C185.551 279.744 156.182 321.492 124.894 361.934C121.056 366.884 119.474 368.034 115.582 372.947C114.683 374.097 113.083 372.48 113.973 371.339C146.432 330.343 174.693 291.61 203.188 247.757C224.671 214.692 244.974 180.894 264.096 146.362C270.236 135.287 276.246 124.142 282.128 112.929C291.647 94.7752 300.837 76.4508 309.697 57.9557C312.034 53.0872 314.347 48.2007 316.637 43.2962C323.909 27.7294 334.498 4.58135 354.947 4.89575C360.961 4.98562 366.543 7.41985 371.811 10.1146C377.177 12.8723 382.444 15.8006 387.703 18.7738C389.806 19.9595 391.901 21.1631 393.986 22.3848C402.247 27.1814 410.385 32.1787 418.4 37.3767C431.775 46.0448 444.797 55.231 457.466 64.9352C463.479 69.5432 469.403 74.2561 475.237 79.0737C511.842 109.337 544.755 143.801 573.297 181.753C576.739 186.325 580.11 190.948 583.409 195.622C584.254 196.817 582.286 197.949 581.45 196.763Z" fill="#E4E4E4"/>
<path d="M489.315 80.8904C490.503 79.5667 491.684 78.2431 492.88 76.9195C502.311 66.4967 512.431 56.195 525.382 50.2196C531.557 47.2806 538.298 45.7191 545.137 45.6436C552.194 45.8372 559.152 47.3535 565.649 50.1137C568.737 51.3466 571.757 52.7459 574.731 54.2359C578.13 55.9453 581.468 57.7682 584.791 59.6061C591.028 63.0552 597.184 66.6555 603.259 70.4071C615.347 77.8725 627.056 85.9076 638.387 94.5126C644.261 98.9752 650.013 103.584 655.645 108.339C660.882 112.756 666.014 117.292 671.04 121.946C672.115 122.937 673.719 121.333 672.645 120.343C671.32 119.11 669.98 117.884 668.641 116.674C664.856 113.255 661.011 109.902 657.105 106.614C649.983 100.609 642.677 94.8353 635.185 89.2936C623.537 80.671 611.487 72.6334 599.036 65.1806C592.814 61.4593 586.507 57.8943 580.113 54.4856C578.183 53.4569 576.23 52.4509 574.255 51.4979C569.772 49.2385 565.115 47.344 560.328 45.8327C553.547 43.6406 546.372 42.9363 539.293 43.7679C532.459 44.7613 525.874 47.0376 519.886 50.4768C507.171 57.5791 497.308 68.5616 487.711 79.2793C486.741 80.3685 488.339 81.9795 489.315 80.8904Z" fill="#E4E4E4"/>
<path d="M228.771 188.898L198.301 177.761L183.172 172.231C178.285 170.265 173.299 168.549 168.236 167.091C163.81 165.827 159.11 165.887 154.718 167.263C150.8 168.712 147.214 170.933 144.173 173.795C141.066 176.654 138.176 179.739 135.525 183.024C132.231 186.98 128.986 190.977 125.726 194.961C112.272 211.402 98.9071 227.915 85.6296 244.499C72.3525 261.083 59.1641 277.737 46.0645 294.462C32.9328 311.228 19.8915 328.064 6.94049 344.969C5.35396 347.04 3.76878 349.112 2.18498 351.186C1.30995 352.331 -0.663079 351.202 0.224314 350.04C13.2709 332.964 26.4084 315.958 39.6368 299.022C52.8978 282.046 66.2504 265.141 79.6946 248.309C93.1386 231.477 106.673 214.717 120.299 198.031C123.694 193.874 127.094 189.721 130.5 185.574C133.372 182.075 136.213 178.538 139.364 175.281C145.148 169.304 152.374 164.021 161.025 163.878C166.11 163.793 171.032 165.406 175.758 167.114C180.852 168.956 185.933 170.832 191.021 172.691L221.704 183.906L229.375 186.71C230.737 187.207 230.148 189.401 228.772 188.898H228.771Z" fill="#E4E4E4"/>
<path d="M529.391 63.3343C544.876 55.3818 564.706 56.9393 578.935 66.8749C551.794 71.554 524.95 77.8149 498.541 85.6253C509.507 79.203 518.086 69.1407 529.391 63.3343Z" fill="#F2F2F2"/>
<path d="M579.087 66.8477L582.068 69.2689C581.06 68.4215 580.011 67.6269 578.935 66.8751C578.985 66.8663 579.036 66.8564 579.087 66.8477Z" fill="#F2F2F2"/>
<path d="M145.32 189.009C148.32 185.36 151.563 181.54 156.049 180.058L160.238 180.223C128.353 236.525 85.2897 285.722 33.6919 324.793C70.9014 279.531 108.111 234.27 145.32 189.009Z" fill="#F2F2F2"/>
<path d="M575.537 397.401L547.339 384.969V374.282L557.389 374.225C558.948 374.216 560.466 373.72 561.728 372.805C562.991 371.89 563.935 370.604 564.428 369.125L571.487 355.951C571.861 354.829 571.963 353.635 571.785 352.467C571.607 351.299 571.153 350.189 570.462 349.231C569.77 348.272 568.86 347.491 567.808 346.952C566.755 346.414 565.589 346.133 564.406 346.133L547.339 352.125V342.179H568.765C570.454 342.179 572.093 341.607 573.414 340.556C574.736 339.505 575.661 338.037 576.039 336.392L580.901 315.258C581.153 314.165 581.154 313.03 580.906 311.936C580.657 310.842 580.165 309.819 579.466 308.941C578.767 308.064 577.879 307.355 576.868 306.868C575.857 306.381 574.749 306.128 573.627 306.128H547.339V303.642C547.339 302.323 546.815 301.058 545.882 300.126C544.949 299.193 543.683 298.669 542.363 298.669C541.044 298.669 539.778 299.193 538.845 300.126C537.911 301.058 537.387 302.323 537.387 303.642V306.128H361.151V303.642C361.151 302.323 360.626 301.058 359.693 300.126C358.76 299.193 357.494 298.669 356.175 298.669C354.855 298.669 353.589 299.193 352.656 300.126C351.723 301.058 351.198 302.323 351.198 303.642V306.128H330.302C329.18 306.128 328.072 306.381 327.061 306.868C326.05 307.355 325.162 308.064 324.463 308.941C323.763 309.819 323.271 310.842 323.023 311.936C322.775 313.03 322.776 314.165 323.027 315.258L327.889 336.392C328.268 338.037 329.193 339.505 330.514 340.556C331.836 341.607 333.475 342.179 335.164 342.179H351.198V352.125L339.522 346.133C338.346 346.133 337.186 346.411 336.138 346.944C335.089 347.477 334.182 348.25 333.489 349.2C332.796 350.15 332.338 351.251 332.152 352.411C331.966 353.572 332.057 354.76 332.418 355.879L339.623 370.236C340.11 371.745 341.065 373.06 342.35 373.99C343.635 374.92 345.183 375.416 346.769 375.408L351.198 375.383V384.969L328.391 397.4C326.412 397.4 324.513 398.186 323.113 399.585C321.714 400.984 320.927 402.881 320.927 404.859V404.859C320.927 406.838 321.714 408.735 323.113 410.134C324.513 411.532 326.412 412.318 328.391 412.318H351.198V508.958C351.198 510.277 351.723 511.542 352.656 512.474C353.589 513.407 354.855 513.931 356.175 513.931C357.494 513.931 358.76 513.407 359.693 512.474C360.626 511.542 361.151 510.277 361.151 508.958V412.318H537.387V509.957C537.387 511.276 537.912 512.54 538.845 513.473C539.778 514.406 541.044 514.929 542.363 514.929C543.683 514.929 544.949 514.406 545.882 513.473C546.815 512.54 547.339 511.276 547.339 509.957V412.318H575.537C577.517 412.318 579.415 411.532 580.815 410.134C582.215 408.735 583.001 406.838 583.001 404.859C583.001 402.881 582.215 400.984 580.815 399.585C579.416 398.186 577.517 397.401 575.537 397.401H575.537ZM361.151 342.179H537.387V352.125H361.151V342.179ZM361.151 384.969V375.327L537.387 374.337V384.969L361.151 384.969Z" fill="#CCCCCC"/>
<path d="M427.379 253.019C428.648 250.088 430.575 247.487 433.01 245.418C435.445 243.35 438.323 241.868 441.422 241.087C448.303 239.299 458.378 242.023 463.551 245.935C473.013 253.091 475.322 277.672 468.821 285.44C467.528 285.389 463.067 285.35 461.758 285.313L459.907 280.631V285.267C449.692 285.027 439.057 285.177 428.417 285.332C427.463 279.832 425.191 258.309 427.379 253.019Z" fill="#2F2E41"/>
<path d="M441.604 279.512C449.754 279.512 456.361 272.91 456.361 264.765C456.361 256.621 449.754 250.019 441.604 250.019C433.454 250.019 426.848 256.621 426.848 264.765C426.848 272.91 433.454 279.512 441.604 279.512Z" fill="#9E616A"/>
<path d="M431.465 245.564C434.3 243.836 437.548 242.902 440.868 242.858C444.189 242.814 447.46 243.663 450.34 245.315C453.22 246.967 455.603 249.362 457.24 252.249C458.876 255.136 459.707 258.41 459.644 261.728C451.6 263.782 443.028 264.642 433.944 262.223L431.868 257.144L430.644 262.227C427.865 264.18 425.182 264.177 422.597 262.216C422.487 258.908 423.249 255.628 424.805 252.706C426.361 249.784 428.657 247.321 431.465 245.564Z" fill="#2F2E41"/>
<path d="M471.75 247.027C470.292 244.792 468.684 242.431 466.208 241.433C463.733 240.434 460.222 241.628 459.886 244.274C459.634 246.253 461.145 247.952 462.282 249.591C463.419 251.229 464.158 253.703 462.673 255.034L461.837 255.465C462.636 256.496 463.666 257.326 464.843 257.887C466.021 258.449 467.314 258.727 468.619 258.699C469.922 258.629 471.167 258.137 472.166 257.297C473.165 256.458 473.864 255.317 474.156 254.045C474.583 251.546 473.136 249.151 471.75 247.027Z" fill="#2F2E41"/>
<path d="M382.158 495.513L373.869 493.103L379.227 460.007L391.461 463.564L382.158 495.513Z" fill="#9E616A"/>
<path d="M381.288 512.319L375.406 510.609L375.971 504.755L371.667 509.522L356.067 504.987C355.319 504.77 354.66 504.319 354.187 503.702C353.713 503.084 353.45 502.331 353.435 501.553C353.42 500.774 353.655 500.012 354.104 499.376C354.554 498.741 355.195 498.266 355.934 498.02L370.895 493.044L372.528 487.434L385.404 492.025L381.288 512.319Z" fill="#2F2E41"/>
<path d="M484.131 492.514L475.918 495.169L461.76 464.773L473.883 460.855L484.131 492.514Z" fill="#9E616A"/>
<path d="M492.85 506.911L487.022 508.795L484.202 503.633L483.317 509.993L467.86 514.99C467.119 515.23 466.32 515.227 465.581 514.981C464.843 514.735 464.202 514.259 463.752 513.624C463.303 512.988 463.069 512.226 463.084 511.448C463.099 510.67 463.362 509.917 463.836 509.299L473.422 496.789L471.622 491.23L484.857 487.806L492.85 506.911Z" fill="#2F2E41"/>
<path d="M430.542 403.82L425.471 425.696L463.456 473.92L477.997 466.473C466.665 441.247 465.665 438.251 453.543 427.371L453.667 427.183C462.38 414.039 471.793 401.436 473.063 385.72C473.098 385.291 471.151 369.568 471.196 369.14C472.282 358.862 421.521 355.602 421.521 355.602C421.521 355.602 412.893 370.798 400.061 382.452L374.104 408.168L374.804 479.009L387.018 481.974C395.999 464.876 400.367 444.827 401.621 422.786L424.185 407.661L430.542 403.82Z" fill="#2F2E41"/>
<path d="M468.154 409.415C467.496 408.683 467.006 407.816 466.72 406.874C466.434 405.933 466.358 404.94 466.497 403.966C466.637 402.991 466.988 402.06 467.527 401.236C468.065 400.412 468.778 399.716 469.615 399.198L468.755 394.896L458.724 344.745L470.357 349.145L477.964 394.394L479.2 401.747C479.979 403.21 480.194 404.907 479.804 406.517C479.414 408.128 478.447 409.539 477.085 410.484C475.724 411.429 474.062 411.843 472.416 411.646C470.77 411.449 469.253 410.655 468.154 409.415H468.154Z" fill="#9E616A"/>
<path d="M455.197 295.387L462.819 290.227C462.819 290.227 469.316 290.1 469.865 301.825C470.414 313.55 471.603 336.407 471.603 336.407L480.17 388.956L464.451 391.57L455.297 334.865L448.935 317.84L455.197 295.387Z" fill="#6C63FF"/>
<path d="M427.275 325.699L425.108 331.326L425.542 336.954L467.932 351.626L465.829 326.997L461.064 321.37L427.275 325.699Z" fill="#FFB6B6"/>
<path d="M413.839 367.032L415.219 353.239C415.362 352.676 415.68 352.173 416.127 351.802C416.574 351.431 417.127 351.211 417.707 351.174C418.282 344.603 420.702 316.258 420.846 315.022L420.852 314.969L421.952 291.482C421.992 290.629 422.345 289.82 422.944 289.211C423.542 288.602 424.345 288.234 425.197 288.178L431.009 287.799C431.089 287.796 431.164 287.762 431.22 287.705C431.275 287.648 431.306 287.571 431.306 287.492C431.306 286.85 431.432 286.215 431.678 285.623C431.924 285.03 432.284 284.492 432.737 284.038C433.191 283.585 433.73 283.225 434.323 282.98C434.916 282.734 435.551 282.608 436.193 282.608H453.399C454.513 282.608 455.589 283.015 456.425 283.752C457.26 284.489 457.798 285.505 457.937 286.61C457.944 286.687 457.98 286.757 458.038 286.808C458.095 286.858 458.169 286.885 458.246 286.884H458.248C460.203 286.843 462.108 287.505 463.617 288.748C465.125 289.991 466.138 291.733 466.471 293.659C468.823 307.335 473.537 338.375 471.207 355.632C470.395 361.639 472.144 356.881 472.451 361.907C472.482 362.393 472.416 362.88 472.258 363.34C472.1 363.8 471.852 364.225 471.53 364.59C472.19 364.829 472.729 365.32 473.03 365.955C473.331 366.59 473.369 367.317 473.136 367.98L473.439 367.905C473.35 368.256 473.193 368.587 472.977 368.878C472.76 369.168 472.489 369.413 472.177 369.599C471.866 369.785 471.522 369.908 471.163 369.96C470.804 370.013 470.439 369.994 470.087 369.906L419.697 365.353C418.219 364.98 413.466 368.509 413.839 367.032Z" fill="#6C63FF"/>
<path d="M670.531 514.502C670.532 514.658 670.501 514.813 670.442 514.957C670.382 515.102 670.294 515.233 670.184 515.343C670.073 515.454 669.942 515.541 669.798 515.601C669.653 515.661 669.498 515.691 669.342 515.69L606.355 515.72L590.646 515.73L580.283 515.74H568.821L562.565 515.75L545.197 515.76L271.924 515.9L269.845 515.91L147.609 515.95H145.59L41.5415 515.99H39.5229L7.04515 516C6.72975 516 6.42728 515.875 6.20426 515.652C5.98124 515.429 5.85596 515.127 5.85596 514.812C5.85596 514.496 5.98124 514.194 6.20426 513.971C6.42728 513.749 6.72975 513.623 7.04515 513.623L39.8627 513.613H41.8813L145.9 513.573H147.919L269.206 513.533H271.274L374.624 513.493H375.983L543.298 513.394L560.636 513.384L568.571 513.374L581.112 513.364H591.825L608.704 513.354L669.342 513.314C669.498 513.313 669.653 513.344 669.798 513.403C669.942 513.463 670.073 513.55 670.184 513.661C670.294 513.771 670.382 513.902 670.442 514.047C670.501 514.191 670.532 514.346 670.531 514.502Z" fill="#CACACA"/>
</g>
<defs>
<clipPath id="clip0_84_230">
<rect width="673" height="516" fill="white"/>
</clipPath>
</defs>
</svg>
