<svg width="30" height="30" viewBox="0 0 30 30" fill="none" xmlns="http://www.w3.org/2000/svg">
<path d="M18.42 15.495C20.9489 16.2344 23.1701 17.7733 24.7508 19.8813C26.3314 21.9893 27.1864 24.5527 27.1875 27.1875H2.8125C2.81304 24.5526 3.66777 21.9888 5.2485 19.8807C6.82923 17.7727 9.05078 16.2338 11.58 15.495L15 20.625L18.42 15.495ZM21.0938 8.90625C21.0938 10.5224 20.4517 12.0724 19.3089 13.2152C18.1661 14.358 16.6162 15 15 15C13.3838 15 11.8339 14.358 10.6911 13.2152C9.54827 12.0724 8.90625 10.5224 8.90625 8.90625C8.90625 7.29009 9.54827 5.74012 10.6911 4.59732C11.8339 3.45452 13.3838 2.8125 15 2.8125C16.6162 2.8125 18.1661 3.45452 19.3089 4.59732C20.4517 5.74012 21.0938 7.29009 21.0938 8.90625Z" fill="#849E7B"/>
</svg>
