<svg width="36" height="36" viewBox="0 0 36 36" fill="none" xmlns="http://www.w3.org/2000/svg">
<path d="M18 3C15.0333 3 12.1332 3.87973 9.66645 5.52796C7.19972 7.17618 5.27713 9.51886 4.14181 12.2597C3.0065 15.0006 2.70945 18.0166 3.28823 20.9264C3.86701 23.8361 5.29562 26.5088 7.3934 28.6066C9.49119 30.7044 12.1639 32.133 15.0737 32.7118C17.9834 33.2906 20.9994 32.9935 23.7403 31.8582C26.4811 30.7229 28.8238 28.8003 30.472 26.3336C32.1203 23.8668 33 20.9667 33 18C33 16.0302 32.612 14.0796 31.8582 12.2597C31.1044 10.4399 29.9995 8.78628 28.6066 7.3934C27.2137 6.00052 25.5601 4.89563 23.7403 4.14181C21.9204 3.38799 19.9698 3 18 3ZM27 17.7C27.0233 17.9592 26.9713 18.2197 26.85 18.45L23.7 25.8C23.5357 26.1747 23.261 26.4904 22.9126 26.7048C22.5641 26.9192 22.1585 27.0222 21.75 27H13.5C12.7044 27 11.9413 26.6839 11.3787 26.1213C10.8161 25.5587 10.5 24.7956 10.5 24V16.5C10.485 16.2214 10.5309 15.9429 10.6346 15.6838C10.7382 15.4248 10.897 15.1914 11.1 15L18 7.5L19.035 8.535C19.3075 8.81875 19.4675 9.19197 19.485 9.585V9.885L18.615 15H25.5C25.8978 15 26.2794 15.158 26.5607 15.4393C26.842 15.7206 27 16.1022 27 16.5V17.7Z" fill="#849E7B"/>
</svg>
